<svg width="21" height="21" fill="none" xmlns="http://www.w3.org/2000/svg"><path d="M21 2.619A2.619 2.619 0 0 0 18.381 0H2.619A2.62 2.62 0 0 0 0 2.619v15.762A2.619 2.619 0 0 0 2.619 21h15.762A2.619 2.619 0 0 0 21 18.381V2.619Z" fill="#000"/><path fill-rule="evenodd" clip-rule="evenodd" d="M11.559 5.007H7.804v.724h3.255l3.389 8.936h1.168v-.724h-.669L11.56 5.007Zm-.771 1.118H7.803v.723h.97l-2.688 7.095h-.669v.724h1.169l2.964-7.819h.42l-1.81 4.774h4.713l-2.084-5.497Zm-1.58 4.774 1.308-3.45 1.31 3.45H9.208Zm3.814 1.117H8.01l-1.005 2.651h1.808v-.724h-.76l.457-1.204h4.012l.457 1.204h-.76v.724h1.808l-1.005-2.652Zm-4.21 3.002H5.417v.723h3.397v-.723Zm6.804 0H12.22v.723h3.396v-.723Z" fill="#fff"/></svg>