<svg width="80" height="80" fill="none" xmlns="http://www.w3.org/2000/svg"><path d="M13.32 17.36v11.25H28.8V13.3H17.38a4.06 4.06 0 0 0-4.06 4.06ZM50.76 66.18h11.38c.262-.003.523-.03.78-.08a4.119 4.119 0 0 0 2.05-1.11 4.08 4.08 0 0 0 1.19-2.87V50.71h-15.4v15.47ZM47.63 50.71H31.94v15.47h15.69V50.71ZM66.19 31.75H50.76v15.69h15.43V31.75ZM47.63 13.3H31.94v15.31h15.69V13.3ZM28.8 31.75H13.32v15.69H28.8V31.75Z" fill="#fff"/><path d="M68.14 13.09a7.073 7.073 0 0 0-1-1.09 7.35 7.35 0 0 0-4.6-2H16.94A7.36 7.36 0 0 0 10 17.35v44.78a7.38 7.38 0 0 0 7.37 7.37h44.78a7.39 7.39 0 0 0 7.37-7.38V17.36a7.35 7.35 0 0 0-1.38-4.27ZM28.8 47.43H13.32V31.75H28.8v15.68Zm0-18.82H13.32V17.36a4.06 4.06 0 0 1 4.06-4.06H28.8v15.31Zm18.83 37.57H31.92V50.71h15.71v15.47Zm0-37.57H31.92V13.3h15.71v15.31ZM66.2 62.12a4.08 4.08 0 0 1-1.19 2.87 4.12 4.12 0 0 1-2.91 1.19H50.76V50.71H66.2v11.41Zm0-14.69H50.76V31.75H66.2v15.68Z" fill="#000"/></svg>