<svg id="Layer_1" data-name="Layer 1" xmlns="http://www.w3.org/2000/svg" viewBox="0 0 507.21 484.62"><path d="m275.77 13.91 60.69 123a22.82 22.82 0 0 0 17.19 12.48l135.7 19.72C508.07 171.8 515.54 194.8 502 208l-98.2 95.72a22.8 22.8 0 0 0-6.56 20.19l23.18 135.16c3.2 18.64-16.37 32.86-33.11 24.06l-121.38-63.81a22.85 22.85 0 0 0-21.24 0l-121.38 63.82c-16.74 8.8-36.3-5.42-33.11-24.06l23.19-135.16a22.83 22.83 0 0 0-6.57-20.19L8.62 208c-13.54-13.2-6.07-36.2 12.65-38.92L157 149.36a22.82 22.82 0 0 0 17.18-12.48l60.69-123C243.22-3 267.4-3 275.77 13.91Z" transform="translate(-1.71 -1.19)" style="fill:#b2b2b2"/></svg>