<svg width="80" height="80" fill="none" xmlns="http://www.w3.org/2000/svg"><path d="M62.14 13.32h-20l24.1 24.1v-20a4.058 4.058 0 0 0-4.1-4.1ZM66.2 62.14V41.8L41.8 66.2h20.34c.54.01 1.077-.085 1.58-.28a4.08 4.08 0 0 0 2.48-3.78ZM13.32 17.38v20.07l24.13-24.13H17.38a4.12 4.12 0 0 0-4.06 4.06ZM13.32 62.14a4.06 4.06 0 0 0 4.06 4.06h20.37L13.32 41.77v20.37Z" fill="#6493E6"/><path d="M39.77 15.704 28.442 27.032 39.77 38.358l11.328-11.328L39.77 15.705ZM39.77 40.864 28.444 52.192 39.77 63.52l11.328-11.328L39.77 40.864Z" fill="#fff"/><path d="M62.14 10H17.38A7.38 7.38 0 0 0 10 17.37v44.78a7.38 7.38 0 0 0 7.37 7.37h44.78a7.39 7.39 0 0 0 7.37-7.38V17.38A7.39 7.39 0 0 0 62.14 10Zm-22.37 5.7L51.1 27.03 39.77 38.36 28.44 27.03 39.77 15.7Zm-26.45 1.68a4.12 4.12 0 0 1 4.06-4.06h20.07L13.32 37.45V17.38ZM37.75 66.2H17.38a4.06 4.06 0 0 1-4.06-4.06V41.77L37.75 66.2Zm2-2.68L28.45 52.2l11.32-11.28L51.1 52.2 39.77 63.52h-.02Zm26.43-1.38a4.08 4.08 0 0 1-2.46 3.78 4.17 4.17 0 0 1-1.58.32H41.8l24.4-24.4-.02 20.3Zm0-24.72L42.1 13.32h20a4.06 4.06 0 0 1 4.06 4.06l.02 20.04Z" fill="#000"/><path d="M62.14 13.32a4.06 4.06 0 0 1 4.06 4.06v20-20a4.06 4.06 0 0 0-4.06-4.06ZM66.2 62.14a4.08 4.08 0 0 1 0 .04V41.8v20.34ZM37.45 13.32 13.32 37.45l24.13-24.13H17.38h20.07ZM13.32 41.77 37.75 66.2 13.32 41.77ZM39.78 38.36l11.33-11.33L39.78 15.7 51.1 27.03 39.78 38.36ZM51.1 52.19 39.78 40.87 51.1 52.19 39.78 63.52 51.1 52.19Z" fill="#000"/></svg>