<svg width="21" height="21" fill="none" xmlns="http://www.w3.org/2000/svg"><rect width="21" height="21" rx="3.087" fill="#000"/><path d="M15.56 12.05a4.1 4.1 0 0 1-2.309 2.443v-2.442l1.319-1.205-1.32-1.189V7.978a2.091 2.091 0 0 0 1.448-.625c.384-.39.601-.914.607-1.463 0-1.44-1.365-1.951-2.14-1.951-.21-.007-.42.015-.624.066v.07c.102 0 .254-.017.304-.017.537 0 .943.256.943.747a.784.784 0 0 1-.53.716.77.77 0 0 1-.311.037c-1.32 0-2.9-1.085-4.601-1.085-1.517-.007-2.553 1.132-2.553 2.284 0 1.151.66 1.51 1.349 1.762l.016-.066a.815.815 0 0 1-.376-.747 1 1 0 0 1 .671-.883.983.983 0 0 1 .385-.05c1.431 0 3.74 1.205 5.175 1.205h.135v1.696l-1.32 1.172 1.32 1.205v2.469a4.943 4.943 0 0 1-1.718.289c-2.227 0-3.628-1.358-3.628-3.611a5.482 5.482 0 0 1 .217-1.577l1.112-.491v4.978l2.26-.995V8.01L8.058 9.505A3.657 3.657 0 0 1 9.912 7.4l-.016-.05c-2.226.492-4.383 2.191-4.383 4.734 0 2.934 2.46 4.979 5.326 4.979 3.035 0 4.753-2.035 4.77-5.002l-.05-.01Z" fill="#fff"/></svg>