<svg width="80" height="80" fill="none" xmlns="http://www.w3.org/2000/svg"><path d="M40.81 30.014v-9a9 9 0 1 0-9 9h9ZM59.14 27.444a9 9 0 1 0-15.33-6.37v9h9a8.94 8.94 0 0 0 6.33-2.63Z" fill="#fff"/><path d="M16.56 50.654c0 8.41 5.22 15.06 12.71 17v-33.54c-7.35 2.55-12.71 9.21-12.71 16.54ZM50.56 68.284a19.71 19.71 0 0 0 13.69-7.27 10.87 10.87 0 0 1-10.43-2.81l2.1-2.12a7.93 7.93 0 0 0 11.09.1 15.653 15.653 0 0 0 1-5.53 17.132 17.132 0 0 0-17.39-17.58h-6.81v35.21h6.75Zm4.36-24.55a3.15 3.15 0 1 1-3.15 3.14 3.141 3.141 0 0 1 3.15-3.14ZM34.01 33.074c-.584.049-1.165.129-1.74.24v34.89c.53.05 1.08.08 1.63.08h6.91v-35.22h-6.8v.01Z" fill="#F8CD0E"/><path d="M54.92 50.014a3.15 3.15 0 1 0 0-6.3 3.15 3.15 0 0 0 0 6.3Z" fill="#000"/><path d="M58.51 31.614c1.01-.55 1.935-1.24 2.75-2.05A12.002 12.002 0 0 0 59.97 11.5a12 12 0 0 0-17.71 3.783 11.999 11.999 0 1 0-15.54 16.63c-7.2 3.1-12.46 9.8-13.08 17.26H8v3h5.63a20.2 20.2 0 0 0 20.29 19.11h16.82c11.18-.88 20.33-10.13 20.33-20.63a20.34 20.34 0 0 0-12.56-19.04Zm-29.24 36.07c-7.49-2-12.71-8.62-12.71-17 0-7.33 5.39-14 12.71-16.54v33.54Zm11.54.6h-6.89c-.55 0-1.1 0-1.63-.08v-34.89c.575-.111 1.156-.191 1.74-.24h6.8l-.02 35.21Zm0-38.23h-9a9.05 9.05 0 0 1-6.35-2.62 9 9 0 1 1 15.33-6.37l.02 8.99Zm3-9a9 9 0 1 1 9 9h-9v-9Zm12.11 35.03-2.1 2.12a10.87 10.87 0 0 0 10.43 2.81 19.711 19.711 0 0 1-13.69 7.24h-6.75v-35.19h6.81a17.13 17.13 0 0 1 17.45 17.59 15.649 15.649 0 0 1-1 5.53 7.93 7.93 0 0 1-11.15-.1Z" fill="#000"/></svg>