<svg version="1.1" id="Layer_1" xmlns="http://www.w3.org/2000/svg" x="0" y="0" viewBox="0 0 510 486.4" style="enable-background:new 0 0 510 486.4" xml:space="preserve"><path d="m261.5 19.8 66 145.1c1.1 2.3 3.3 4 5.9 4.2L488 184.6c4 .4 6.9 4 6.5 7.9-.2 1.8-1 3.4-2.3 4.6L372 308.1c-1.9 1.8-2.7 4.4-2.2 6.9l35 147c.9 3.9-1.5 7.8-5.3 8.7-1.8.4-3.8.1-5.4-.8l-135.3-81.4c-2.3-1.4-5.2-1.4-7.5 0L116 469.9c-3.4 2.1-7.8 1-9.9-2.4-1-1.6-1.3-3.6-.8-5.4l35-147c.6-2.5-.2-5.2-2.2-6.9L17.8 197c-2.9-2.7-3.1-7.3-.4-10.3 1.2-1.3 2.8-2.1 4.5-2.3L176.5 169c2.6-.3 4.8-1.9 5.9-4.2l66-145.1c1.7-3.6 6-5.2 9.6-3.5 1.6.7 2.8 2 3.5 3.6z" style="fill:none;stroke:#e0d95e;stroke-width:31px;stroke-miterlimit:10"/></svg>