<svg id="Layer_1" data-name="Layer 1" xmlns="http://www.w3.org/2000/svg" viewBox="0 0 507.21 484.59"><path d="m274.06 12.72 60.69 123a22.83 22.83 0 0 0 17.19 12.48l135.7 19.72c18.72 2.69 26.19 25.69 12.65 38.89l-98.2 95.72a22.8 22.8 0 0 0-6.56 20.19l23.18 135.16c3.2 18.64-16.37 32.86-33.11 24.06l-121.38-63.81a22.85 22.85 0 0 0-21.24 0L121.6 482c-16.74 8.8-36.3-5.42-33.11-24.06l23.19-135.16a22.83 22.83 0 0 0-6.57-20.19l-98.2-95.78c-13.54-13.2-6.07-36.2 12.65-38.92l135.73-19.72a22.82 22.82 0 0 0 17.18-12.48l60.69-123c8.35-16.88 32.53-16.88 40.9.03Z" transform="translate(0 -.03)" style="fill:#e0d95e"/></svg>